<svg height="24" viewBox="0 0 24 24" width="24" xmlns="http://www.w3.org/2000/svg"><path d="m7 11v9.0046024c0 .5397332.4463856.9953976.99703014.9953976h8.00593976c.5439938 0 .9970301-.4456547.9970301-.9953976v-9.0046024m2 1.7614154v7.243187c0 1.6548312-1.348952 2.9953976-2.9970301 2.9953976h-8.00593976c-1.6541475 0-2.99703014-1.3499963-2.99703014-2.9953976v-7.242767c-1.16642817-.4519978-2-1.5029045-2-2.7667169v-.990237c0-1.69091707 1.49363187-3.0048815 3.28087391-3.0048815h11.43341179c1.7888359 0 3.2857143 1.31128432 3.2857143 3.0048815v.990237c0 1.2634314-.8298472 2.314071-2 2.7662969zm-12.70759037-1.7614154h11.41982967c.7451467 0 1.2877607-.4771417 1.2877607-1.0048815v-.990237c0-.52579926-.5468897-1.0048815-1.2857143-1.0048815h-11.43341179c-.73565036 0-1.28087391.47963918-1.28087391 1.0048815v.990237c0 .5257861.5469333 1.0048815 1.2924099 1.0048815zm9.70759037-6h-2c0-1.1045695-.8954305-2-2-2s-2 .8954305-2 2h-2c0-2.209139 1.790861-4 4-4s4 1.790861 4 4zm-7 6.9975446v7.0049108c0 .5512332.44771525.9975446 1 .9975446.5561352 0 1-.446616 1-.9975446v-7.0049108c0-.5512332-.4477153-.9975446-1-.9975446-.55613518 0-1 .446616-1 .9975446zm4 0v7.0049108c0 .5512332.4477153.9975446 1 .9975446.5561352 0 1-.446616 1-.9975446v-7.0049108c0-.5512332-.4477153-.9975446-1-.9975446-.5561352 0-1 .446616-1 .9975446z" fill="#4a4a4a"/></svg>